HIERARCHY
ROOT Hips
{
	OFFSET 0.000000 0.000000 0.000000 
	CHANNELS 6 Xposition Yposition Zposition Zrotation Yrotation Xrotation
	JOINT LeftUpLeg
	{
		OFFSET 1.363060 -1.794630 0.839290 
		CHANNELS 3 Zrotation Yrotation Xrotation
		JOINT LeftLeg
		{
			OFFSET 2.448110 -6.726130 0.000000 
			CHANNELS 3 Zrotation Yrotation Xrotation
			JOINT LeftFoot
			{
				OFFSET 2.562200 -7.039590 0.000000 
				CHANNELS 3 Zrotation Yrotation Xrotation
				JOINT LeftToeBase
				{
					OFFSET 0.157640 -0.433110 2.322550 
					CHANNELS 3 Zrotation Yrotation Xrotation
					End Site
					{
						OFFSET 0.000000 0.000000 0.000000 
					}
				}
			}
		}
	}
	JOINT RightUpLeg
	{
		OFFSET -1.305520 -1.794630 0.839290 
		CHANNELS 3 Zrotation Yrotation Xrotation
		JOINT RightLeg
		{
			OFFSET -2.542530 -6.985550 0.000000 
			CHANNELS 3 Zrotation Yrotation Xrotation
			JOINT RightFoot
			{
				OFFSET -2.568260 -7.056230 0.000000 
				CHANNELS 3 Zrotation Yrotation Xrotation
				JOINT RightToeBase
				{
					OFFSET -0.164730 -0.452590 2.363150 
					CHANNELS 3 Zrotation Yrotation Xrotation
					End Site
					{
						OFFSET 0.000000 0.000000 0.000000 
					}
				}
			}
		}
	}
	JOINT Spine
	{
		OFFSET 0.028270 2.035590 -0.193380 
		CHANNELS 3 Zrotation Yrotation Xrotation
		JOINT Spine1
		{
			OFFSET 0.056720 2.048850 -0.042750 
			CHANNELS 3 Zrotation Yrotation Xrotation
			JOINT Neck1
			{
				OFFSET -0.054170 1.746240 0.172020 
				CHANNELS 3 Zrotation Yrotation Xrotation
				JOINT Head
				{
					OFFSET 0.104070 1.761360 -0.123970 
					CHANNELS 3 Zrotation Yrotation Xrotation
					End Site
					{
						OFFSET 0.000000 0.000000 0.000000 
					}
				}
			}
			JOINT LeftArm
			{
				OFFSET 3.362410 1.200890 -0.311210 
				CHANNELS 3 Zrotation Yrotation Xrotation
				JOINT LeftForeArm
				{
					OFFSET 4.983000 -0.000000 -0.000000 
					CHANNELS 3 Zrotation Yrotation Xrotation
					JOINT LeftHand
					{
						OFFSET 3.483560 -0.000000 -0.000000 
						CHANNELS 3 Zrotation Yrotation Xrotation
						JOINT LeftHandIndex1
						{
							OFFSET 0.715260 -0.000000 -0.000000 
							CHANNELS 3 Zrotation Yrotation Xrotation
							End Site
							{
								OFFSET 0.000000 0.000000 0.000000 
							}
						}
					}
				}
			}
			JOINT RightArm
			{
				OFFSET -3.136600 1.374050 -0.404650 
				CHANNELS 3 Zrotation Yrotation Xrotation
				JOINT RightForeArm
				{
					OFFSET -5.241900 -0.000000 -0.000000 
					CHANNELS 3 Zrotation Yrotation Xrotation
					JOINT RightHand
					{
						OFFSET -3.444170 -0.000000 -0.000000 
						CHANNELS 3 Zrotation Yrotation Xrotation
						JOINT RightHandIndex1
						{
							OFFSET -0.622530 -0.000000 -0.000000 
							CHANNELS 3 Zrotation Yrotation Xrotation
							End Site
							{
								OFFSET 0.000000 0.000000 0.000000 
							}
						}
					}
				}
			}
		}
	}
}
MOTION
Frames: 6
Frame Time: 0.041667
8.594693 17.483317 16.118805 1.526412 -1.512667 20.264576 -27.389985 -17.127474 -63.726165 20.732554 30.890528 95.537575 -2.172441 6.257843 9.195477 0.988700 -6.328700 -17.741200 34.291935 18.819993 -19.221041 4.866690 -12.254787 21.451731 0.551927 -6.442396 1.973976 -0.394000 4.030200 -11.161600 3.445999 -3.143306 -4.712349 4.644701 -0.777342 0.071369 4.825818 -8.945372 7.508316 -1.385300 -4.146000 5.931900 -73.750970 7.725207 5.918138 21.491400 -27.510713 -7.348413 -0.537897 -1.588200 -40.247819 -7.125000 0.000000 0.000000 69.936163 0.292100 1.453237 -23.127585 25.083722 -6.011410 0.660990 0.698586 -8.509328 7.125000 0.000000 0.000000 
8.573095 17.456018 16.202128 1.434047 -1.987841 20.266288 -27.450689 -16.831324 -63.309228 19.469158 30.988646 92.398625 -2.148879 6.432131 9.106010 1.007100 -6.385600 -17.907400 34.475333 18.878716 -19.289116 4.786806 -12.494501 22.039625 0.453183 -5.960160 1.523108 -0.372400 3.919500 -10.850400 3.347498 -3.168362 -4.681789 4.402147 -0.815575 0.220319 4.966255 -8.969695 7.403284 -1.240700 -4.170700 5.941100 -73.365292 7.372149 5.664770 21.583787 -27.585524 -7.397269 -0.542213 -1.590171 -40.424071 -7.125000 0.000000 0.000000 70.420950 0.398056 1.777448 -22.765701 24.723070 -5.831485 0.661232 0.715711 -8.321721 7.125000 0.000000 0.000000 
8.551497 17.429487 16.286437 1.325380 -2.444254 20.283552 -27.497049 -16.543702 -62.858204 18.155597 31.021134 89.170240 -2.110158 6.560091 9.094792 1.036400 -6.475100 -18.169200 34.673477 18.927192 -19.336396 4.711824 -12.710022 22.574691 0.352876 -5.481961 1.088481 -0.345500 3.777100 -10.450500 3.252672 -3.196790 -4.655520 4.159930 -0.854633 0.358631 5.102627 -9.002254 7.302914 -1.103100 -4.197700 5.952600 -72.992172 7.021022 5.412510 21.660610 -27.641510 -7.436312 -0.541548 -1.592593 -40.605028 -7.125000 0.000000 0.000000 70.893088 0.463642 2.116755 -22.430184 24.388635 -5.666716 0.658361 0.732726 -8.110976 7.125000 0.000000 0.000000 
8.530009 17.403832 16.372280 1.200074 -2.880199 20.309575 -27.529146 -16.268155 -62.364562 16.798721 30.981684 85.865611 -2.056216 6.645790 9.160974 1.077500 -6.598100 -18.530000 34.890746 18.968028 -19.350187 4.642639 -12.898731 23.053967 0.253235 -5.015287 0.672452 -0.315800 3.612400 -9.988700 3.161145 -3.231122 -4.631883 3.911979 -0.895850 0.491772 5.236761 -9.042782 7.202815 -0.970600 -4.227200 5.961600 -72.628913 6.671265 5.157025 21.719917 -27.677478 -7.464092 -0.536978 -1.596030 -40.774641 -7.125000 0.000000 0.000000 71.356660 0.485294 2.485881 -22.127922 24.089703 -5.520657 0.652437 0.748778 -7.891843 7.125000 0.000000 0.000000 
8.508630 17.378945 16.459659 1.056386 -3.302569 20.331467 -27.549856 -15.998438 -61.815277 15.407052 30.863636 82.500298 -1.989330 6.702653 9.302682 1.130100 -6.751900 -18.982300 35.133105 19.000686 -19.313202 4.579340 -13.058073 23.476949 0.154556 -4.559398 0.277889 -0.285900 3.438500 -9.502200 3.073821 -3.267018 -4.610538 3.667189 -0.937211 0.613711 5.366937 -9.089390 7.110075 -0.844100 -4.258200 5.974600 -72.283518 6.324231 4.901952 21.759807 -27.690741 -7.479150 -0.529659 -1.598689 -40.920846 -7.125000 0.000000 0.000000 71.801663 0.456727 2.893878 -21.859688 23.827068 -5.393386 0.644944 0.763455 -7.682197 7.125000 0.000000 0.000000 
8.487361 17.354716 16.547915 0.898392 -3.701977 20.357590 -27.545940 -15.749837 -61.230475 13.990985 30.666698 79.089382 -1.915442 6.760529 9.526657 1.186600 -6.912900 -19.457600 35.395815 19.022514 -19.236752 4.523063 -13.189019 23.841923 0.061357 -4.132119 -0.093956 -0.257000 3.261600 -9.008000 2.991780 -3.307519 -4.593401 3.433875 -0.979462 0.717486 5.497435 -9.140736 7.021491 -0.720400 -4.290500 5.989700 -71.959894 5.985099 4.658335 21.784548 -27.686121 -7.484273 -0.520259 -1.600807 -41.045628 -7.125000 0.000000 0.000000 72.224155 0.373014 3.346293 -21.628187 23.603304 -5.285309 0.635666 0.776723 -7.495946 7.125000 0.000000 0.000000 
